<svg width="16" height="16" viewBox="0 0 16 16" fill="none" xmlns="http://www.w3.org/2000/svg">
<path d="M8.11829 0.55957C9.13391 0.55957 10.1039 0.758164 11.0283 1.15535C11.9527 1.55254 12.7502 2.08645 13.4208 2.75707C14.0914 3.4277 14.6253 4.2252 15.0225 5.14957C15.4197 6.07395 15.6183 7.04395 15.6183 8.05957C15.6183 9.41363 15.283 10.6669 14.6123 11.8194C13.9417 12.9719 13.0303 13.8833 11.8781 14.5536C10.7259 15.2239 9.47266 15.5593 8.11829 15.5596C7.3761 15.5596 6.66641 15.4619 5.98922 15.2666C6.36672 14.6547 6.62063 14.1144 6.75094 13.6457L7.27829 11.5949C7.4086 11.8424 7.64954 12.0605 8.0011 12.2493C8.35266 12.438 8.72375 12.5324 9.11438 12.5324C9.89563 12.5324 10.5955 12.3077 11.2139 11.8583C11.8323 11.4089 12.3109 10.7938 12.6497 10.0129C12.9884 9.23191 13.1577 8.35301 13.1573 7.37613C13.1573 6.21738 12.7114 5.2116 11.8195 4.35879C10.9277 3.50598 9.79157 3.07957 8.41125 3.07957C7.565 3.07957 6.79032 3.22285 6.08719 3.50941C5.38407 3.79598 4.81766 4.17035 4.38797 4.63254C3.95829 5.09473 3.62954 5.59598 3.40172 6.13629C3.17391 6.6766 3.06 7.2202 3.06 7.76707C3.06 8.44426 3.18688 9.03676 3.44063 9.54457C3.69438 10.0524 4.07532 10.4105 4.58344 10.6189C4.67469 10.658 4.75282 10.6613 4.81782 10.6288C4.88282 10.5963 4.92844 10.5344 4.95469 10.4432C5.04594 10.1175 5.09797 9.91566 5.11079 9.83754C5.16297 9.69441 5.13047 9.5577 5.01329 9.42738C4.67485 9.04988 4.50563 8.5616 4.50563 7.96254C4.50563 6.97285 4.8475 6.12332 5.53125 5.41395C6.215 4.70457 7.11016 4.34973 8.21672 4.34941C9.19329 4.34941 9.955 4.61629 10.5019 5.15004C11.0488 5.68379 11.3222 6.38035 11.3222 7.23973C11.3222 7.95598 11.2245 8.61676 11.0292 9.22207C10.8339 9.82738 10.5539 10.3124 10.1892 10.6771C9.82454 11.0418 9.40782 11.2241 8.93907 11.2241C8.54844 11.2241 8.22938 11.0808 7.98188 10.7943C7.73438 10.5077 7.65625 10.1691 7.7475 9.77848C7.79969 9.59629 7.86813 9.36191 7.95282 9.07535C8.03751 8.78879 8.10907 8.54457 8.1675 8.3427C8.22594 8.14082 8.28125 7.9227 8.33344 7.68832C8.38563 7.45395 8.41172 7.25863 8.41172 7.10238C8.41172 6.77676 8.32704 6.50988 8.15766 6.30176C7.98829 6.09363 7.74094 5.98941 7.41563 5.9891C7.01188 5.9891 6.67329 6.17473 6.39985 6.54598C6.12641 6.91723 5.98969 7.3827 5.98969 7.94238C5.98969 8.15082 6.00594 8.3527 6.03844 8.54801C6.07094 8.74332 6.10672 8.8866 6.14579 8.97785L6.20438 9.11473C5.67063 11.4325 5.34516 12.7932 5.22797 13.1966C5.12391 13.6913 5.08485 14.2707 5.11079 14.9347C3.76954 14.3357 2.68547 13.4177 1.8586 12.1808C1.03172 10.9439 0.618286 9.5702 0.618286 8.05957C0.618286 5.98926 1.35063 4.22176 2.81532 2.75707C4.28 1.29238 6.0475 0.560039 8.11782 0.560039L8.11829 0.55957Z" fill="#4F4F4F"/>
</svg>
