<svg width="38" height="25" viewBox="0 0 38 25" fill="none" xmlns="http://www.w3.org/2000/svg">
<g opacity="0.8">
<path opacity="0.07" d="M35 0.439941H3C1.3 0.439941 0 1.73994 0 3.43994V21.4399C0 23.1399 1.4 24.4399 3 24.4399H35C36.7 24.4399 38 23.1399 38 21.4399V3.43994C38 1.73994 36.6 0.439941 35 0.439941Z" fill="black"/>
<path d="M35 1.43994C36.1 1.43994 37 2.33994 37 3.43994V21.4399C37 22.5399 36.1 23.4399 35 23.4399H3C1.9 23.4399 1 22.5399 1 21.4399V3.43994C1 2.33994 1.9 1.43994 3 1.43994H35Z" fill="white"/>
<path d="M18.093 12.4162V15.6162H17.075V7.71617H19.766C20.0884 7.71071 20.4088 7.76904 20.7086 7.8878C21.0084 8.00655 21.2818 8.1834 21.513 8.40817C21.732 8.61257 21.9086 8.85812 22.0327 9.13081C22.1568 9.40349 22.2259 9.69796 22.2361 9.99737C22.2464 10.2968 22.1975 10.5953 22.0923 10.8758C21.987 11.1563 21.8276 11.4133 21.623 11.6322L21.513 11.7482C21.043 12.1952 20.415 12.4382 19.766 12.4222L18.093 12.4162ZM18.093 8.68417V11.4722H19.791C20.168 11.4842 20.532 11.3372 20.796 11.0682C20.9848 10.8713 21.1116 10.6233 21.1606 10.355C21.2096 10.0867 21.1786 9.80986 21.0715 9.559C20.9644 9.30814 20.7859 9.0943 20.5583 8.94409C20.3306 8.79388 20.0638 8.71393 19.791 8.71417L18.093 8.68417ZM24.577 10.0322C25.227 10.0022 25.863 10.2202 26.355 10.6452C26.8 11.0752 27.037 11.6752 27.005 12.2942V15.6282H26.036V14.8622H25.987C25.8132 15.1495 25.5675 15.3865 25.2741 15.5497C24.9807 15.713 24.6497 15.7969 24.314 15.7932C23.7659 15.8109 23.2314 15.6205 22.818 15.2602C22.6221 15.1004 22.4652 14.8982 22.359 14.6688C22.2528 14.4394 22.2001 14.1889 22.205 13.9362C22.1935 13.6808 22.2431 13.4263 22.3497 13.1939C22.4563 12.9615 22.6169 12.758 22.818 12.6002C23.3114 12.2453 23.9086 12.0642 24.516 12.0852C25.033 12.0652 25.546 12.1782 26.006 12.4162V12.2082C26.0094 12.0362 25.9736 11.8657 25.9013 11.7096C25.8291 11.5535 25.7223 11.4159 25.589 11.3072C25.3213 11.0638 24.9707 10.9322 24.609 10.9392C24.3463 10.9367 24.0873 11.0012 23.8566 11.1267C23.6258 11.2522 23.4308 11.4344 23.29 11.6562L22.395 11.0922C22.638 10.744 22.9661 10.4638 23.3481 10.2782C23.73 10.0927 24.1531 10.008 24.577 10.0322ZM23.29 13.9602C23.2876 14.0897 23.3171 14.2178 23.3758 14.3333C23.4346 14.4487 23.5209 14.5479 23.627 14.6222C23.85 14.7982 24.127 14.8912 24.412 14.8852C24.841 14.8842 25.252 14.7152 25.558 14.4132C25.863 14.1272 26.036 13.7282 26.036 13.3102C25.651 13.0365 25.1833 12.9043 24.712 12.9362C24.3461 12.9218 23.9852 13.0248 23.682 13.2302C23.5619 13.3105 23.4634 13.4191 23.3951 13.5463C23.3267 13.6736 23.2906 13.8157 23.29 13.9602ZM32.576 10.2102L29.186 18.0002H28.138L29.419 15.2722L27.195 10.2102H28.298L29.91 14.0952L31.479 10.2102H32.576Z" fill="#5F6368"/>
<path d="M13.986 11.7237C13.986 11.4157 13.962 11.1077 13.913 10.8037H9.623V12.5507H12.074C12.0241 12.8284 11.9187 13.0931 11.764 13.329C11.6094 13.5649 11.4087 13.7672 11.174 13.9237V15.0577H12.638C13.0831 14.627 13.4331 14.1078 13.6653 13.5335C13.8974 12.9593 14.0067 12.3428 13.986 11.7237Z" fill="#4285F4"/>
<path d="M9.629 16.1609C10.7353 16.1913 11.8116 15.799 12.639 15.0639L11.173 13.9239C10.8207 14.1497 10.4216 14.2923 10.006 14.3407C9.59039 14.3891 9.1692 14.3421 8.77448 14.2033C8.37975 14.0644 8.02188 13.8374 7.72808 13.5395C7.43429 13.2415 7.2123 12.8805 7.079 12.4839H5.577V13.6539C5.95284 14.4069 6.53104 15.0404 7.24675 15.4832C7.96246 15.926 8.78738 16.1607 9.629 16.1609Z" fill="#34A853"/>
<path d="M7.07899 12.49C6.88879 11.9273 6.88879 11.3177 7.07899 10.755V9.58496H5.57699C5.25678 10.2164 5.0899 10.9145 5.0899 11.6225C5.0899 12.3305 5.25678 13.0285 5.57699 13.66L7.07899 12.49Z" fill="#FBBC04"/>
<path d="M9.629 8.88013C10.276 8.86831 10.9015 9.11274 11.369 9.56013L12.669 8.26713C11.8401 7.48914 10.7406 7.06479 9.604 7.08413C8.76736 7.08833 7.94824 7.32413 7.23743 7.76541C6.52662 8.20669 5.9519 8.83619 5.577 9.58413L7.079 10.7551C7.25462 10.2152 7.59508 9.74394 8.0525 9.4076C8.50992 9.07126 9.06127 8.88679 9.629 8.88013Z" fill="#EA4335"/>
</g>
</svg>
