<svg width="16" height="16" viewBox="0 0 16 16" fill="none" xmlns="http://www.w3.org/2000/svg">
<path d="M8.21551 1.91242C10.2185 1.91242 10.4538 1.92133 11.2455 1.95695C11.9777 1.98977 12.3733 2.11164 12.6382 2.2157C12.9893 2.35258 13.2396 2.51336 13.5011 2.77539C13.7627 3.03742 13.9268 3.28727 14.0608 3.63836C14.1621 3.9032 14.2872 4.2993 14.3196 5.03102C14.3552 5.82273 14.3641 6.05758 14.3641 8.06102C14.3641 10.0645 14.3552 10.2993 14.3196 11.091C14.2868 11.8232 14.1649 12.2188 14.0608 12.4837C13.9239 12.8348 13.7632 13.0851 13.5011 13.3466C13.2391 13.6082 12.9893 13.7723 12.6382 13.9063C12.3733 14.0076 11.9772 14.1327 11.2455 14.1651C10.4538 14.2007 10.2189 14.2096 8.21551 14.2096C6.21207 14.2096 5.97723 14.2007 5.18551 14.1651C4.45332 14.1323 4.0577 14.0104 3.79285 13.9063C3.44176 13.7695 3.19145 13.6087 2.92989 13.3466C2.66832 13.0846 2.50426 12.8348 2.3702 12.4837C2.26895 12.2188 2.14379 11.8227 2.11145 11.091C2.07582 10.2993 2.06692 10.0645 2.06692 8.06102C2.06692 6.05758 2.07582 5.82273 2.11145 5.03102C2.14426 4.29883 2.26614 3.9032 2.3702 3.63836C2.50707 3.28727 2.66785 3.03695 2.92989 2.77539C3.19192 2.51383 3.44176 2.34977 3.79285 2.2157C4.0577 2.11445 4.45379 1.9893 5.18551 1.95695C5.97723 1.91805 6.21207 1.91242 8.21551 1.91242ZM8.21551 0.561016C6.17973 0.561016 5.92379 0.569922 5.12317 0.605547C4.32535 0.641172 3.78067 0.769141 3.30489 0.953828C2.81082 1.14414 2.3941 1.40336 1.97739 1.82008C1.56067 2.2368 1.30473 2.65633 1.11114 3.14758C0.926448 3.62383 0.798479 4.16852 0.762854 4.96914C0.727229 5.76695 0.718323 6.02289 0.718323 8.0582C0.718323 10.0935 0.727229 10.3499 0.762854 11.1505C0.798479 11.9484 0.926448 12.493 1.11114 12.9721C1.30145 13.4662 1.56067 13.8829 1.97739 14.2996C2.3941 14.7163 2.81364 14.9723 3.30489 15.1659C3.78114 15.3505 4.32582 15.4785 5.12645 15.5141C5.92707 15.5498 6.1802 15.5587 8.21879 15.5587C10.2574 15.5587 10.5105 15.5498 11.3111 15.5141C12.1089 15.4785 12.6536 15.3505 13.1327 15.1659C13.6268 14.9755 14.0435 14.7163 14.4602 14.2996C14.8769 13.8829 15.1329 13.4634 15.3264 12.9721C15.5111 12.4959 15.6391 11.9512 15.6747 11.1505C15.7104 10.3499 15.7193 10.0968 15.7193 8.0582C15.7193 6.01961 15.7104 5.76648 15.6747 4.96586C15.6391 4.16805 15.5111 3.62336 15.3264 3.1443C15.1361 2.65023 14.8769 2.23352 14.4602 1.8168C14.0435 1.40008 13.6239 1.14414 13.1327 0.950547C12.6564 0.765859 12.1118 0.637891 11.3111 0.602266C10.5077 0.569453 10.2518 0.560547 8.21598 0.560547L8.21551 0.561016ZM8.21551 4.20695C6.09067 4.20695 4.36426 5.93008 4.36426 8.0582C4.36426 10.1863 6.09067 11.9095 8.21551 11.9095C10.3404 11.9095 12.0668 10.183 12.0668 8.0582C12.0668 5.93336 10.3404 4.20695 8.21551 4.20695ZM8.21551 10.558C6.83457 10.558 5.71567 9.43914 5.71567 8.0582C5.71567 6.67727 6.83457 5.55836 8.21551 5.55836C9.59645 5.55836 10.7154 6.67727 10.7154 8.0582C10.7154 9.43914 9.59645 10.558 8.21551 10.558ZM13.1172 4.05508C13.1172 4.55148 12.715 4.95367 12.2186 4.95367C11.7222 4.95367 11.32 4.55148 11.32 4.05508C11.32 3.55867 11.7222 3.15648 12.2186 3.15648C12.715 3.15648 13.1172 3.55867 13.1172 4.05508Z" fill="#4F4F4F"/>
</svg>
