<svg width="28" height="12" viewBox="0 0 28 12" fill="none" xmlns="http://www.w3.org/2000/svg">
<path d="M5.1097 1.54166C5.42769 1.14417 5.64331 0.610329 5.58646 0.0649414C5.12125 0.0880434 4.55366 0.371835 4.2248 0.769778C3.92968 1.11042 3.66854 1.66645 3.73649 2.18896C4.25877 2.23426 4.78061 1.92805 5.1097 1.54166Z" fill="black"/>
<path d="M5.58058 2.29113C4.82183 2.24583 4.17724 2.72146 3.81509 2.72146C3.4527 2.72146 2.89803 2.31378 2.29806 2.32488C1.51735 2.3362 0.793032 2.77785 0.396675 3.47997C-0.418236 4.88421 0.18151 6.96792 0.974224 8.11169C1.35903 8.67792 1.82288 9.30076 2.43395 9.27834C3.0115 9.25569 3.23776 8.90463 3.93943 8.90463C4.64087 8.90463 4.84471 9.27834 5.45601 9.26702C6.08972 9.25569 6.48608 8.70079 6.87089 8.13457C7.31254 7.48907 7.49306 6.86622 7.50438 6.83225C7.49306 6.82093 6.28224 6.35639 6.27092 4.96348C6.25959 3.79706 7.22172 3.24216 7.26702 3.20796C6.72367 2.40437 5.87479 2.31378 5.58035 2.29113" fill="black"/>
<path d="M13.1422 0.712891C14.7906 0.712891 15.9386 1.84919 15.9386 3.50347C15.9386 5.16364 14.767 6.30583 13.101 6.30583H11.2759V9.20853H9.95728V0.712891H13.1422ZM11.2759 5.19898H12.7889C13.9372 5.19898 14.5904 4.58088 14.5904 3.50936C14.5904 2.43806 13.9369 1.82564 12.7947 1.82564H11.2759V5.19898Z" fill="black"/>
<path d="M16.2657 7.44797C16.2657 6.35878 17.0958 5.7348 18.6264 5.64058L20.2689 5.54047V5.06937C20.2689 4.38084 19.8157 4.00396 19.0092 4.00396C18.3437 4.00396 17.8609 4.34528 17.7612 4.86916H16.5717C16.6072 3.76841 17.6432 2.96777 19.0445 2.96777C20.5516 2.96777 21.5347 3.75664 21.5347 4.98127V9.20825H20.3162V8.18972H20.2868C19.9394 8.85492 19.1738 9.2728 18.3437 9.2728C17.1193 9.2728 16.2657 8.54305 16.2657 7.44797ZM20.2689 6.90054V6.42356L18.8031 6.51778C17.9786 6.57077 17.5492 6.87676 17.5492 7.41241C17.5492 7.93062 17.9965 8.26628 18.6971 8.26628C19.5917 8.26628 20.2689 7.69507 20.2689 6.90054Z" fill="black"/>
<path d="M22.6552 11.4807V10.4624C22.7376 10.474 22.9376 10.4858 23.0436 10.4858C23.6264 10.4858 23.9562 10.2389 24.1564 9.60267L24.2741 9.22602L22.0428 3.04443H23.4203L24.9747 8.06028H25.0041L26.5583 3.04443H27.9007L25.5869 9.5379C25.0569 11.0275 24.4506 11.5163 23.1673 11.5163C23.0672 11.5163 22.7433 11.5045 22.6552 11.4807Z" fill="black"/>
</svg>
