<svg width="16" height="16" viewBox="0 0 16 16" fill="none" xmlns="http://www.w3.org/2000/svg">
<path d="M12.2933 0.55957H3.54333C2.71453 0.55957 1.91968 0.88881 1.33363 1.47486C0.747575 2.06091 0.418335 2.85577 0.418335 3.68457L0.418335 12.4346C0.418335 12.845 0.499165 13.2513 0.656211 13.6305C0.813257 14.0096 1.04344 14.3541 1.33363 14.6443C1.91968 15.2303 2.71453 15.5596 3.54333 15.5596H12.2933C12.7037 15.5596 13.1101 15.4787 13.4892 15.3217C13.8684 15.1646 14.2129 14.9345 14.503 14.6443C14.7932 14.3541 15.0234 14.0096 15.1805 13.6305C15.3375 13.2513 15.4183 12.845 15.4183 12.4346V3.68457C15.4183 3.27419 15.3375 2.86783 15.1805 2.48868C15.0234 2.10954 14.7932 1.76504 14.503 1.47486C14.2129 1.18468 13.8684 0.954493 13.4892 0.797447C13.1101 0.640401 12.7037 0.55957 12.2933 0.55957ZM5.41833 12.4346H3.54333V5.55957H5.41833V12.4346ZM4.48083 4.76582C4.18827 4.76582 3.90768 4.6496 3.70081 4.44272C3.49393 4.23585 3.37771 3.95526 3.37771 3.6627C3.37771 3.37013 3.49393 3.08954 3.70081 2.88267C3.90768 2.67579 4.18827 2.55957 4.48083 2.55957C4.7734 2.55957 5.05399 2.67579 5.26086 2.88267C5.46774 3.08954 5.58396 3.37013 5.58396 3.6627C5.58396 3.95526 5.46774 4.23585 5.26086 4.44272C5.05399 4.6496 4.7734 4.76582 4.48083 4.76582ZM12.9183 12.4346H11.0433V8.93457C11.0433 6.82832 8.54333 6.98457 8.54333 8.93457V12.4346H6.66833V5.55957H8.54333V6.65957C8.82889 6.19866 9.26356 5.84934 9.77511 5.66964C10.2867 5.48994 10.8443 5.49069 11.3554 5.67175C11.8664 5.85282 12.3002 6.2033 12.5845 6.66497C12.8688 7.12664 12.9866 7.67169 12.9183 8.20957V12.4346Z" fill="#4F4F4F"/>
</svg>
