<svg width="38" height="25" viewBox="0 0 38 25" fill="none" xmlns="http://www.w3.org/2000/svg">
<g opacity="0.8">
<path opacity="0.07" d="M35 0.439941H3C1.3 0.439941 0 1.73994 0 3.43994V21.4399C0 23.1399 1.4 24.4399 3 24.4399H35C36.7 24.4399 38 23.1399 38 21.4399V3.43994C38 1.73994 36.6 0.439941 35 0.439941Z" fill="black"/>
<path d="M35 1.43994C36.1 1.43994 37 2.33994 37 3.43994V21.4399C37 22.5399 36.1 23.4399 35 23.4399H3C1.9 23.4399 1 22.5399 1 21.4399V3.43994C1 2.33994 1.9 1.43994 3 1.43994H35Z" fill="white"/>
<path d="M23.9 8.73994C24.1 7.73994 23.9 7.03994 23.3 6.43994C22.7 5.73994 21.6 5.43994 20.2 5.43994H16.1C15.8 5.43994 15.6 5.63994 15.5 5.93994L14 16.0399C14 16.2399 14.1 16.4399 14.3 16.4399H17L17.4 13.0399L19.2 10.8399L23.9 8.73994Z" fill="#003087"/>
<path d="M23.9 8.73975L23.7 8.93975C23.2 11.7397 21.5 12.7397 19.1 12.7397H18C17.7 12.7397 17.5 12.9397 17.4 13.2397L16.8 17.1397L16.6 18.1397C16.6 18.3397 16.7 18.5397 16.9 18.5397H19C19.3 18.5397 19.5 18.3397 19.5 18.1397V18.0397L19.9 15.6397V15.5397C19.9 15.3397 20.2 15.1397 20.4 15.1397H20.7C22.8 15.1397 24.4 14.3397 24.8 11.9397C25 10.9397 24.9 10.1397 24.4 9.53975C24.3 9.03975 24.1 8.83975 23.9 8.73975Z" fill="#3086C8"/>
<path d="M23.3 8.53975C23.2 8.43975 23.1 8.43975 23 8.43975C22.9 8.43975 22.8 8.43975 22.7 8.33975C22.4 8.23975 22 8.23975 21.6 8.23975H18.6C18.5 8.23975 18.4 8.23975 18.4 8.33975C18.2 8.43975 18.1 8.53975 18.1 8.73975L17.4 13.1397V13.2397C17.4 12.9397 17.7 12.7397 18 12.7397H19.3C21.8 12.7397 23.4 11.7397 23.9 8.93975V8.73975C23.8 8.63975 23.6 8.53975 23.4 8.53975H23.3Z" fill="#012169"/>
</g>
</svg>
