<svg width="27" height="9" viewBox="0 0 27 9" fill="none" xmlns="http://www.w3.org/2000/svg">
<path d="M23.3 2.53994H23C22.6 3.53994 22.3 4.03994 22 5.53994H23.9C23.6 4.03994 23.6 3.33994 23.3 2.53994ZM26.2 8.43994H24.5C24.4 8.43994 24.4 8.43994 24.3 8.33994L24.1 7.43994L24 7.23994H21.6C21.5 7.23994 21.4 7.23994 21.4 7.43994L21.1 8.33994C21.1 8.43994 21 8.43994 21 8.43994H18.9L19.1 7.93994L22 1.13994C22 0.639941 22.3 0.439941 22.8 0.439941H24.3C24.4 0.439941 24.5 0.439941 24.5 0.639941L25.9 7.13994C26 7.53994 26.1 7.83994 26.1 8.23994C26.2 8.33994 26.2 8.33994 26.2 8.43994ZM12.8 8.13994L13.2 6.33994C13.3 6.33994 13.4 6.43994 13.4 6.43994C14.1 6.73994 14.8 6.93994 15.5 6.83994C15.7 6.83994 16 6.73994 16.2 6.63994C16.7 6.43994 16.7 5.93994 16.3 5.53994C16.1 5.33994 15.8 5.23994 15.5 5.03994C15.1 4.83994 14.7 4.63994 14.4 4.33994C13.2 3.33994 13.6 1.93994 14.3 1.23994C14.9 0.839942 15.2 0.439941 16 0.439941C17.2 0.439941 18.5 0.439941 19.1 0.639941H19.2C19.1 1.23994 19 1.73994 18.8 2.33994C18.3 2.13994 17.8 1.93994 17.3 1.93994C17 1.93994 16.7 1.93994 16.4 2.03994C16.2 2.03994 16.1 2.13994 16 2.23994C15.8 2.43994 15.8 2.73994 16 2.93994L16.5 3.33994C16.9 3.53994 17.3 3.73994 17.6 3.93994C18.1 4.23994 18.6 4.73994 18.7 5.33994C18.9 6.23994 18.6 7.03994 17.8 7.63994C17.3 8.03994 17.1 8.23994 16.4 8.23994C15 8.23994 13.9 8.33994 13 8.03994C12.9 8.23994 12.9 8.23994 12.8 8.13994ZM9.3 8.43994C9.4 7.73994 9.4 7.73994 9.5 7.43994C10 5.23994 10.5 2.93994 10.9 0.739942C11 0.539942 11 0.439941 11.2 0.439941H13C12.8 1.63994 12.6 2.53994 12.3 3.63994C12 5.13994 11.7 6.63994 11.3 8.13994C11.3 8.33994 11.2 8.33994 11 8.33994M0 0.639941C0 0.539941 0.2 0.439941 0.3 0.439941H3.7C4.2 0.439941 4.6 0.739942 4.7 1.23994L5.6 5.63994C5.6 5.73994 5.6 5.73994 5.7 5.83994C5.7 5.73994 5.8 5.73994 5.8 5.73994L7.9 0.639941C7.8 0.539941 7.9 0.439941 8 0.439941H10.1C10.1 0.539941 10.1 0.539941 10 0.639941L6.9 7.93994C6.8 8.13994 6.8 8.23994 6.7 8.33994C6.6 8.43994 6.4 8.33994 6.2 8.33994H4.7C4.6 8.33994 4.5 8.33994 4.5 8.13994L2.9 1.93994C2.7 1.73994 2.4 1.43994 2 1.33994C1.4 1.03994 0.3 0.839941 0.0999999 0.839941L0 0.639941Z" fill="#142688"/>
</svg>
