<svg width="16" height="16" viewBox="0 0 16 16" fill="none" xmlns="http://www.w3.org/2000/svg">
<path d="M0.518311 12.4656C0.518311 13.0707 0.718008 13.5851 1.1174 14.0087C1.5168 14.4324 2.00301 14.6442 2.57604 14.6442H13.6029C14.1759 14.6442 14.6621 14.4324 15.0615 14.0087C15.4609 13.5851 15.6606 13.0707 15.6606 12.4656V3.6901C15.6606 3.08495 15.4589 2.56449 15.0556 2.12873C14.6523 1.69298 14.1682 1.4751 13.6033 1.4751H2.57649C2.01164 1.4751 1.52755 1.69298 1.12422 2.12873C0.720886 2.56449 0.51922 3.08495 0.51922 3.6901V12.4656H0.518311ZM6.02558 10.8801V5.27601C6.02558 5.21964 6.0418 5.17525 6.07422 5.14283C6.09846 5.13464 6.11861 5.13055 6.13467 5.13055L6.19513 5.14283L11.4724 7.95101C11.5048 7.98343 11.521 8.02373 11.521 8.07192C11.521 8.10434 11.5048 8.13661 11.4724 8.16873L6.19513 10.9769C6.17907 10.993 6.16286 11.001 6.14649 11.001C6.11407 11.001 6.08983 10.993 6.07377 10.9769C6.04134 10.9445 6.02513 10.9122 6.02513 10.8801H6.02558Z" fill="#4F4F4F"/>
</svg>
